# xmcd
#
# Track frame offsets:
#	150
#	5675
#	25529
#	50822
#	91424
#	114980
#	136192
#	165682
#	185343
#	225221
#	252134
#	278267
#	294727
#	316953
#
# Disc length: 4466 seconds
#
# Revision: 2
# Processed by: cddbd v1.5.2PL0 Copyright (c) Steve Scherf et al.
# Submitted via: EZCDAudioConverter 1.0.4.1
#
DISCID=ad11700e
DTITLE=Various (Kenya) - Kenya Beat- The Ultimate Collection Vol 1 Disc1
DYEAR=2007
DGENRE=Kenyan
TTITLE0=Barbra Guantai - Intro (Afrika Mama)
TTITLE1=Kayamba Afrika - Mugithi
TTITLE2=Poxi Presha - Otonglo Time
TTITLE3=Everest Kings - Stella
TTITLE4=Olith Ratego - Awuoro
TTITLE5=Musaimo - Mugerekanio
TTITLE6=Nairobi City Ensemble - Le Boucheron
TTITLE7=Markus Kamau - Vicky
TTITLE8=Maroon Commandos - Betty
TTITLE9=Zanaziki - Kairitu Keega
TTITLE10=Angela Chibalonza - Jubilee
TTITLE11=Eric Wainaina - Ritwa Riaku
TTITLE12=Sammy "Kilunda" Wambua - Rose Watwana Kisumo
TTITLE13=Victor Mbuvi (Ft Kamanzi and Jonte) - NIsamehe
EXTD=
EXTT0=
EXTT1=
EXTT2=
EXTT3=
EXTT4=
EXTT5=
EXTT6=
EXTT7=
EXTT8=
EXTT9=
EXTT10=
EXTT11=
EXTT12=
EXTT13=
PLAYORDER=
